/* XPM */
static const char * photomailer_xpm[] = {
"32 32 3 1",
" 	c None",
".	c #FFFFFF",
"+	c #747474",
"                                ",
"             .......            ",
"          .............         ",
"        .....       .....       ",
"       ...             ...      ",
"      ..                ...     ",
"     ..                   ..    ",
"    ..                     ..   ",
"   ..                      ..   ",
"   ..        .....  ...+    ..  ",
"  ..        ....... ...+    ..  ",
"  ..       ...    .....+     .. ",
"  ..      ...      ....+     .. ",
" ..       ..        ...+     .. ",
" ..      ...        ...+     .. ",
" ..      ...        ...+     .. ",
" ..      ...        ...+     .. ",
" ..      ...        ...+    ..  ",
" ..       ..        ...+    ..  ",
"  ..      ...      ....+   ..   ",
"  ..       ...     ....   ..    ",
"  ..       ........ .......     ",
"   ..        .....  .....       ",
"   ..                           ",
"    ..                          ",
"     ..                         ",
"      ..                        ",
"       ...            ...       ",
"        .....       ....        ",
"          .............         ",
"             .......            ",
"                                "};
